<svg width="30" height="31" viewBox="0 0 30 31" fill="none" xmlns="http://www.w3.org/2000/svg">
<path d="M8.14794 4.46045C7.82984 4.46009 7.5148 4.52243 7.22081 4.64391C6.92683 4.76539 6.65967 4.94362 6.43461 5.16842C6.20956 5.39322 6.03102 5.66018 5.90921 5.95402C5.7874 6.24787 5.7247 6.56284 5.7247 6.88094C5.7247 8.21954 6.80933 9.32893 8.14519 9.32893C9.48287 9.32893 10.5684 8.21954 10.5684 6.88277C10.5687 6.56476 10.5062 6.24981 10.3847 5.95593C10.2632 5.66205 10.0849 5.395 9.86013 5.17004C9.63534 4.94509 9.36843 4.76663 9.07464 4.64487C8.78085 4.52312 8.46595 4.46045 8.14794 4.46045ZM19.968 10.8784C17.9335 10.8784 16.77 11.942 16.2107 13H16.152V11.1636H12.1427V24.6312H16.3207V17.9648C16.3207 16.2081 16.4528 14.5101 18.6266 14.5101C20.7693 14.5101 20.8005 16.5134 20.8005 18.0757V24.6312H24.9786V17.234C24.9786 13.6143 24.2002 10.8784 19.968 10.8784ZM6.05751 11.1626V24.6312H10.2384V11.1626H6.05751Z" fill="#020024"/>
</svg>
